HIERARCHY
ROOT root     
{
	OFFSET 0.0000 0.0000 0.0000
	CHANNELS 6 Xposition Yposition Zposition Zrotation Yrotation Xrotation
	JOINT pelvis   
	{
		OFFSET 0.0000 0.0000 0.0000
		CHANNELS 3 Zrotation Yrotation Xrotation
		JOINT thorax   
		{
			OFFSET 0.0000 23.0750 -5.0000
			CHANNELS 3 Zrotation Yrotation Xrotation
			JOINT rclavicle
			{
				OFFSET 0.0000 28.0009 0.0000
				CHANNELS 3 Zrotation Yrotation Xrotation
				JOINT rhumerus 
				{
					OFFSET -18.5725 5.5939 0.0000
					CHANNELS 3 Zrotation Yrotation Xrotation
					JOINT rradius  
					{
						OFFSET -24.8459 0.0000 0.0000
						CHANNELS 3 Zrotation Yrotation Xrotation
						JOINT rhand    
						{
							OFFSET -24.5477 0.0000 0.0000
							CHANNELS 3 Zrotation Yrotation Xrotation
							End Site
							{
								OFFSET -8.1826 0.0000 0.0000
							}
						}
					}
				}
			}
			JOINT lclavicle
			{
				OFFSET 0.0000 28.0009 0.0000
				CHANNELS 3 Zrotation Yrotation Xrotation
				JOINT lhumerus 
				{
					OFFSET 18.5725 5.5939 0.0000
					CHANNELS 3 Zrotation Yrotation Xrotation
					JOINT lradius  
					{
						OFFSET 24.8459 0.0000 0.0000
						CHANNELS 3 Zrotation Yrotation Xrotation
						JOINT lhand    
						{
							OFFSET 24.5477 0.0000 0.0000
							CHANNELS 3 Zrotation Yrotation Xrotation
							End Site
							{
								OFFSET 8.1826 0.0000 0.0000
							}
						}
					}
				}
			}
			JOINT head     
			{
				OFFSET 0.0000 35.2030 0.0000
				CHANNELS 3 Zrotation Yrotation Xrotation
				End Site
				{
					OFFSET 0.0000 11.7343 0.0000
				}
			}
		}
		JOINT rfemur   
		{
			OFFSET -8.2817 0.0000 0.0000
			CHANNELS 3 Zrotation Yrotation Xrotation
			JOINT rtibia   
			{
				OFFSET 0.0000 -43.3627 0.0000
				CHANNELS 3 Zrotation Yrotation Xrotation
				JOINT rfoot    
				{
					OFFSET 0.0000 -38.2947 0.0000
					CHANNELS 3 Zrotation Yrotation Xrotation
					JOINT rtoes    
					{
						OFFSET 0.0000 0.0000 16.6054
						CHANNELS 3 Zrotation Yrotation Xrotation
						End Site
						{
							OFFSET 0.0000 0.0000 5.5351
						}
					}
				}
			}
		}
		JOINT lfemur   
		{
			OFFSET 8.2817 0.0000 0.0000
			CHANNELS 3 Zrotation Yrotation Xrotation
			JOINT ltibia   
			{
				OFFSET 0.0000 -43.3627 0.0000
				CHANNELS 3 Zrotation Yrotation Xrotation
				JOINT lfoot    
				{
					OFFSET 0.0000 -38.2947 0.0000
					CHANNELS 3 Zrotation Yrotation Xrotation
					JOINT ltoes    
					{
						OFFSET 0.0000 0.0000 16.6054
						CHANNELS 3 Zrotation Yrotation Xrotation
						End Site
						{
							OFFSET 0.0000 0.0000 5.5351
						}
					}
				}
			}
		}
	}
}
MOTION
Frames: 11
Frame Time: .0333333
17.02 81.653 -3.0958 -35.7135 84.2911 -17.4003 0 -0 0 -1.74669 -5.52497 20.587 19.1825 -11.0717 7.52301e-05 58.2427 -13.4254 5.38728 -0 58.7706 -0 -0.0988016 5.76406 -0.0050001 -16.1618 15.9064 -5.99338e-06 -47.7745 7.36573 -0.836416 -180 -77.2195 180 0.122004 4.43855 0.00470021 -2.54732 5.52264 -13.9068 6.70873 -10.2726 -52.8591 -0 -0 62.9996 -2.13476e-07 -6.19942 2.9568 -0.320997 1.83583e-06 -37.1472 -0.892715 4.62531 -35.861 -0 -0 46.8014 7.35729e-05 11.813 -15.2961 -3.15818 8.51289e-06 -20.6658 
17.701 81.69 -3.0311 -34.7891 84.2713 -16.4923 0 -0 0 -1.69047 -5.8265 20.5889 19.2425 -11.2466 -3.07743e-06 58.1052 -13.8457 5.3069 -0 58.0917 -0 0.00500002 5.7697 0.00030001 -16.0829 15.8768 0.000119824 -47.1595 7.18065 -1.3774 -180 -76.7782 180 0.344199 4.49417 0.0135001 -2.43672 5.3936 -13.9868 6.83209 -10.1552 -53.3567 -0 -0 60.9163 -5.90428e-06 -6.20006 3.14355 -0.341303 -5.94386e-07 -37.7328 -0.947311 4.74529 -35.1745 -0 -0 46.4657 7.46223e-05 11.8113 -15.595 -3.21786 -1.64053e-05 -20.96 
18.394 81.718 -2.9639 -33.84 84.2679 -15.5646 0 -0 0 -1.6343 -6.13076 20.5828 19.2982 -11.4333 1.69755e-05 57.9541 -14.2674 5.23434 -0 57.4204 -0 0.1301 5.78258 0.00659995 -16.0042 15.8566 -8.20044e-05 -46.5533 6.99568 -1.8869 -180 -76.3898 180 0.565497 4.55272 0.0224999 -2.32298 5.24459 -14.0476 6.96163 -10.0811 -53.7781 -0 -0 58.7197 1.17553e-06 -6.1766 3.4026 -0.367996 3.50008e-06 -38.3942 -1.00784 4.85161 -34.4751 -0 -0 46.1271 3.65191e-05 11.8028 -15.8912 -3.27474 -1.29745e-05 -21.247 
19.097 81.736 -2.8945 -32.88 84.2879 -14.6291 0 -0 0 -1.57729 -6.43804 20.5659 19.3508 -11.6314 5.54556e-06 57.794 -14.6912 5.16176 -0 56.7619 -0 0.275999 5.79644 0.014 -15.9268 15.8434 4.02298e-05 -45.9564 6.81255 -2.3639 180 -76.0425 180 0.779294 4.61197 0.0313994 -2.20791 5.08112 -14.0938 7.10193 -10.0536 -54.1355 -0 -0 56.4224 -5.77753e-07 -6.13627 3.72872 -0.400601 -6.76927e-06 -39.0665 -1.07388 4.94285 -33.7666 -0 -0 45.7877 -2.99623e-05 11.7861 -16.1782 -3.32731 -1.71727e-06 -21.5168 
19.808 81.744 -2.8226 -31.8978 84.3266 -13.6706 0 -0 0 -1.51917 -6.74639 20.5371 19.4021 -11.8324 3.04465e-05 57.628 -15.1254 5.07176 -5.09506e-07 56.1229 -9.5576e-07 0.440895 5.80639 0.0223997 -15.8474 15.8348 2.93838e-05 -45.3777 6.63554 -2.80916 -180 -75.7275 180 0.980186 4.66352 0.0398993 -2.09247 4.90827 -14.1281 7.25231 -10.0666 -54.4359 -0 -0 54.0377 -5.95097e-06 -6.09158 4.11439 -0.438705 -1.90371e-06 -39.702 -1.14472 5.02008 -33.0579 -0 -0 45.4527 5.94614e-05 11.761 -16.4527 -3.37471 6.33691e-07 -21.7737 
20.528 81.744 -2.7479 -30.8727 84.3757 -12.6662 0 -0 0 -1.45949 -7.05387 20.4986 19.455 -12.0332 0.000113159 57.4565 -15.569 4.95764 -0 55.5055 -0 0.621102 5.80749 0.0315002 -15.7667 15.8321 6.08534e-05 -44.8219 6.46566 -3.22414 -180 -75.4405 180 1.1625 4.70485 0.0478001 -1.9779 4.73204 -14.1546 7.41499 -10.1153 -54.6908 -0 -0 51.5862 4.40701e-06 -6.05296 4.54375 -0.481304 5.03068e-06 -40.2589 -1.21918 5.08622 -32.3498 -0 -0 45.1244 7.95833e-06 11.7312 -16.7104 -3.41688 4.18718e-06 -22.0203 
21.255 81.736 -2.6701 -29.8129 84.4373 -11.6236 0 -0 0 -1.39809 -7.36043 20.452 19.509 -12.2458 -4.4662e-05 57.285 -16.0007 4.81999 -0 54.9015 -0 0.808495 5.79483 0.0408997 -15.6967 15.8342 -7.63481e-05 -44.2757 6.30536 -3.6128 180 -75.1778 -180 1.3203 4.74251 0.0546998 -1.86636 4.55839 -14.1775 7.59115 -10.1977 -54.9037 -0 -0 49.0882 -1.68326e-06 -6.02408 4.99128 -0.526098 7.85319e-06 -40.705 -1.29716 5.1452 -31.6451 -0 -0 44.8022 8.00797e-05 11.6953 -16.9555 -3.45483 -1.37363e-05 -22.252 
21.99 81.719 -2.5881 -28.7061 84.5067 -10.5319 0 -0 0 -1.33416 -7.66091 20.3997 19.5668 -12.4539 -0.000128339 57.1155 -16.4333 4.64071 -0 54.3184 -0 0.99928 5.76849 0.0503985 -15.6266 15.8388 5.2811e-05 -43.7575 6.15936 -3.97799 180 -74.9306 180 1.45073 4.7655 0.0603966 -1.75777 4.39163 -14.1996 7.7772 -10.2963 -55.0799 -0 -0 46.5636 2.80943e-06 -6.01608 5.43587 -0.571991 4.28446e-06 -41.0629 -1.3756 5.20431 -30.9464 -0 -0 44.4913 5.73551e-06 11.657 -17.1903 -3.48922 1.61526e-05 -22.4963 
22.732 81.695 -2.5007 -27.5621 84.5721 -9.39922 0 -0 0 -1.26741 -7.95254 20.3463 19.6281 -12.6528 9.17351e-05 56.9526 -16.8643 4.40881 -0 53.7478 -0 1.18785 5.72915 0.0593977 -15.5579 15.8456 3.40892e-05 -43.269 6.03105 -4.32268 -180 -74.7023 180 1.55154 4.77264 0.0647023 -1.65291 4.236 -14.2215 7.96722 -10.396 -55.2133 -0 -0 44.0296 4.87694e-06 -6.03183 5.84995 -0.616993 -1.07281e-06 -41.352 -1.45194 5.27063 -30.2496 -0 -0 44.1926 -5.98284e-06 11.6162 -17.4195 -3.52145 -4.93947e-06 -22.7782 
23.484 81.663 -2.407 -26.3712 84.6404 -8.22416 0 -0 0 -1.19859 -8.23454 20.2938 19.6925 -12.8495 -1.01904e-05 56.8022 -17.2786 4.12638 -4.50948e-07 53.1818 -9.00868e-07 1.36527 5.67912 0.067699 -15.4941 15.8548 -3.20685e-05 -42.8101 5.92447 -4.65019 180 -74.489 180 1.62106 4.76812 0.0675033 -1.55239 4.09517 -14.2427 8.15636 -10.488 -55.3012 -0 -0 41.5111 3.72186e-06 -6.06607 6.20337 -0.65789 -4.52339e-06 -41.5847 -1.52504 5.3505 -29.5501 -0 -0 43.9022 5.33261e-05 11.574 -17.6481 -3.55291 -1.80084e-05 -23.1051 
24.245 81.623 -2.3057 -25.1339 84.7037 -7.00963 0 -0 0 -1.12879 -8.50443 20.2462 19.7583 -13.0369 -1.86788e-05 56.6655 -17.6776 3.78673 -4.40711e-07 52.6179 -8.91365e-07 1.52583 5.62364 0.0749017 -15.4297 15.8642 5.16084e-05 -42.3864 5.84229 -4.96066 -180 -74.2894 180 1.66063 4.75036 0.0689014 -1.45596 3.97125 -14.2599 8.33258 -10.5538 -55.3362 -0 -0 39.0246 3.81023e-06 -6.11568 6.47601 -0.692394 -1.0869e-06 -41.7898 -1.59236 5.45018 -28.8419 -0 -0 43.6209 3.50225e-05 11.528 -17.8831 -3.58392 -4.88412e-06 -23.5033 
